<svg width="256" height="256" viewBox="0 0 256 256" fill="none" xmlns="http://www.w3.org/2000/svg">
<path d="M195.466 121.402C195.497 130.781 192.765 140.033 187.493 148.405C181.242 158.437 171.633 166.874 159.741 172.773C147.849 178.672 134.145 181.799 120.163 181.803C108.47 181.828 96.9349 179.636 86.4977 175.408L36 188.909L62.5778 157.198C57.3059 148.827 44.8288 130.781 44.8592 121.402C44.8647 110.187 48.7627 99.1942 56.1169 89.6557C63.471 80.1172 73.9907 72.4094 86.4977 67.3956C96.9349 63.1671 108.47 60.9757 120.163 61.0002H124.592C143.058 61.8173 160.499 68.069 173.576 78.5582C186.654 89.0475 194.448 103.037 195.466 117.849V121.402Z" fill="#3478F6"/>
<path d="M109.6 143.566C109.579 150.712 111.47 157.761 115.12 164.139C119.448 171.783 126.1 178.212 134.333 182.706C142.566 187.2 152.054 189.583 161.733 189.586C169.829 189.605 177.814 187.935 185.04 184.713L220 195L201.6 170.839C205.25 164.461 213.888 150.712 213.867 143.566C213.863 135.021 211.164 126.646 206.073 119.378C200.982 112.111 193.699 106.238 185.04 102.418C177.814 99.1965 169.829 97.527 161.733 97.5456H158.667C145.883 98.1682 133.808 102.931 124.755 110.923C115.701 118.915 110.305 129.574 109.6 140.859V143.566Z" fill="white"/>
<path d="M134.133 146.273C134.133 142.909 136.896 140.182 140.267 140.182C143.637 140.182 146.4 142.909 146.4 146.273C146.4 149.637 143.637 152.364 140.267 152.364C136.896 152.364 134.133 149.637 134.133 146.273Z" fill="#A5A5A5"/>
<path d="M152.533 146.273C152.533 142.909 155.296 140.182 158.667 140.182C162.037 140.182 164.8 142.909 164.8 146.273C164.8 149.637 162.037 152.364 158.667 152.364C155.296 152.364 152.533 149.637 152.533 146.273Z" fill="#A5A5A5"/>
<path d="M170.933 146.273C170.933 142.909 173.696 140.182 177.067 140.182C180.437 140.182 183.2 142.909 183.2 146.273C183.2 149.637 180.437 152.364 177.067 152.364C173.696 152.364 170.933 149.637 170.933 146.273Z" fill="#A5A5A5"/>
</svg>
